<svg width="24" height="24" viewBox="0 0 24 24" fill="none" xmlns="http://www.w3.org/2000/svg">
<path d="M4 8C4 7.44772 4.44772 7 5 7H13C13.5523 7 14 7.44772 14 8V16C14 16.5523 13.5523 17 13 17H5C4.44772 17 4 16.5523 4 16V8Z" fill="#090A33"/>
<path d="M18.7929 8.20711L16.2929 10.7071C16.1054 10.8946 16 11.149 16 11.4142V12.5858C16 12.851 16.1054 13.1054 16.2929 13.2929L18.7929 15.7929C18.9255 15.9255 19.1054 16 19.2929 16C19.6834 16 20 15.6834 20 15.2929V8.70711C20 8.31658 19.6834 8 19.2929 8C19.1054 8 18.9255 8.0745 18.7929 8.20711Z" fill="#090A33"/>
</svg>
