<svg width="24" height="24" viewBox="0 0 24 24" fill="none" xmlns="http://www.w3.org/2000/svg">
<path d="M8 19H16C16.5523 19 17 18.5523 17 18V10.4142C17 10.149 16.8946 9.89464 16.7071 9.70711L12.2929 5.29289C12.1054 5.10536 11.851 5 11.5858 5H8C7.44772 5 7 5.44772 7 6V18C7 18.5523 7.44772 19 8 19Z" stroke="#090A33" stroke-width="2"/>
<path fill-rule="evenodd" clip-rule="evenodd" d="M13 6C13 5.44772 12.5523 5 12 5C11.4477 5 11 5.44772 11 6V9V10C11 10.5523 11.4477 11 12 11H13H16C16.5523 11 17 10.5523 17 10C17 9.44772 16.5523 9 16 9L14 9C13.4477 9 13 8.55228 13 8V6Z" fill="#090A33"/>
</svg>
