<svg width="12" height="14" viewBox="0 0 12 14" fill="none" xmlns="http://www.w3.org/2000/svg">
<path d="M12.0001 7.13597C12.0001 6.63257 11.9593 6.26522 11.8709 5.88428H6.12256V8.15636H9.49668C9.42868 8.721 9.06133 9.57135 8.24499 10.1427L8.23355 10.2188L10.0511 11.6268L10.177 11.6394C11.3334 10.5713 12.0001 8.9999 12.0001 7.13597Z" fill="#090A33"/>
<path d="M6.12272 13.1223C7.77576 13.1223 9.1635 12.578 10.1771 11.6393L8.24516 10.1426C7.72816 10.5032 7.03427 10.7549 6.12272 10.7549C4.50369 10.7549 3.12955 9.68688 2.6397 8.21069L2.5679 8.21679L0.678035 9.67938L0.65332 9.74808C1.66011 11.7481 3.72814 13.1223 6.12272 13.1223Z" fill="#090A33"/>
<path d="M2.63943 8.21067C2.51018 7.82973 2.43538 7.42153 2.43538 6.99979C2.43538 6.57799 2.51018 6.16984 2.63263 5.7889L2.62921 5.70776L0.715654 4.22168L0.653046 4.25146C0.238098 5.0814 0 6.01339 0 6.99979C0 7.98618 0.238098 8.91812 0.653046 9.74806L2.63943 8.21067Z" fill="#090A33"/>
<path d="M6.12272 3.24477C7.27237 3.24477 8.04786 3.74137 8.49006 4.15636L10.2179 2.46928C9.15675 1.48289 7.77576 0.877441 6.12272 0.877441C3.72814 0.877441 1.66011 2.25158 0.65332 4.25156L2.6329 5.789C3.12955 4.31281 4.50369 3.24477 6.12272 3.24477Z" fill="#090A33"/>
</svg>
